<svg width="202" height="78" viewBox="0 0 202 78" fill="none" xmlns="http://www.w3.org/2000/svg">
<path d="M95.1399 40.2351C95.6661 43.7432 98.2972 51.0751 104.612 52.338C110.926 53.6009 118.118 52.8642 120.924 52.338" stroke="white" stroke-width="2.10486"/>
<path d="M7.95508 23.6409C6.78879 26.991 5.70671 34.7052 10.7087 38.7609C15.7108 42.8166 22.4194 45.5102 25.1485 46.3501" stroke="white" stroke-width="2.10486"/>
<path d="M52.5165 61.0069C54.9721 62.7392 63.5924 64.6926 68.8292 61.0069C74.066 57.3212 76.3394 52.4099 78.0216 50.12" stroke="white" stroke-width="2.10486"/>
<path d="M170.389 52.5875C172.844 54.3198 181.464 56.2732 186.701 52.5875C191.938 48.9018 194.211 43.9905 195.894 41.7006" stroke="white" stroke-width="2.10486"/>
<path d="M36.3108 23.1847C39.2214 23.1847 42.0827 23.5547 44.8947 24.2947C47.756 24.9854 50.0499 25.9227 51.7766 27.1067V40.5004C49.6553 39.2671 47.5586 38.2065 45.4867 37.3185C43.4147 36.3812 40.9727 35.9125 38.1608 35.9125C36.5328 35.9125 35.1268 36.1592 33.9429 36.6525C32.7589 37.1458 32.1669 37.9598 32.1669 39.0945C32.1669 40.3278 32.8822 41.2651 34.3128 41.9064C35.7435 42.4984 37.4948 43.1891 39.5668 43.9784L44.8947 45.9764C48.496 47.3577 51.0366 49.2323 52.5166 51.6003C54.0459 53.9682 54.8105 56.3362 54.8105 58.7042C54.8105 61.8615 53.8979 64.6734 52.0726 67.14C50.2473 69.5573 47.7806 71.4813 44.6727 72.9119C41.5647 74.2933 38.0868 74.9839 34.2388 74.9839C31.2789 74.9839 28.3436 74.4659 25.433 73.4299C22.5224 72.394 19.9817 71.1113 17.8111 69.582V56.1882C20.1791 57.9642 22.7197 59.4195 25.433 60.5541C28.1956 61.6888 30.9582 62.2561 33.7209 62.2561C35.4475 62.2561 36.8288 62.0588 37.8648 61.6641C38.9501 61.2201 39.4928 60.4801 39.4928 59.4442C39.4928 58.7042 39.0981 58.0628 38.3088 57.5202C37.5195 56.9775 36.4588 56.5089 35.1268 56.1142L28.0969 53.8942C25.3343 53.0063 23.1884 51.7976 21.659 50.2683C20.1297 48.739 19.0691 47.037 18.4771 45.1624C17.8851 43.2384 17.5891 41.2898 17.5891 39.3165C17.5891 35.8139 18.4771 32.8786 20.2531 30.5106C22.029 28.0933 24.3477 26.268 27.209 25.0347C30.0702 23.8014 33.1042 23.1847 36.3108 23.1847Z" fill="white"/>
<path d="M180.683 24.2947L164.551 73.8739H154.117L145.459 47.6043L136.801 73.8739H126.367L110.088 24.2947H126.219L132.953 50.0463L140.649 24.2947H150.121L157.965 50.0463L164.551 24.2947H180.683Z" fill="white"/>
<circle cx="94.6137" cy="36.5516" r="3.15728" stroke="white" stroke-width="2.10486"/>
<circle cx="9.203" cy="20.1355" r="3.15728" transform="rotate(27.7254 9.203 20.1355)" stroke="white" stroke-width="2.10486"/>
<circle cx="197.752" cy="38.6565" r="3.15728" stroke="white" stroke-width="2.10486"/>
<circle cx="78.8273" cy="47.0759" r="3.15728" stroke="white" stroke-width="2.10486"/>
<rect x="55.4553" y="18.0856" width="33.9125" height="33.9125" rx="5.74788" transform="rotate(-32.2288 55.4553 18.0856)" fill="white"/>
</svg>
